<svg id="visual" viewBox="0 0 675 900" width="675" height="900" xmlns="http://www.w3.org/2000/svg" xmlns:xlink="http://www.w3.org/1999/xlink" version="1.1"><rect x="0" y="0" width="675" height="900" fill="#5727A3"></rect><path d="M0 543L22.5 511.8C45 480.7 90 418.3 135 364.3C180 310.3 225 264.7 270 261.8C315 259 360 299 405 349.3C450 399.7 495 460.3 540 456.5C585 452.7 630 384.3 652.5 350.2L675 316L675 901L652.5 901C630 901 585 901 540 901C495 901 450 901 405 901C360 901 315 901 270 901C225 901 180 901 135 901C90 901 45 901 22.5 901L0 901Z" fill="#9153f4"></path><path d="M0 447L22.5 467.3C45 487.7 90 528.3 135 546.7C180 565 225 561 270 578C315 595 360 633 405 620.7C450 608.3 495 545.7 540 546.5C585 547.3 630 611.7 652.5 643.8L675 676L675 901L652.5 901C630 901 585 901 540 901C495 901 450 901 405 901C360 901 315 901 270 901C225 901 180 901 135 901C90 901 45 901 22.5 901L0 901Z" fill="#b68ef4"></path><path d="M0 602L22.5 610.3C45 618.7 90 635.3 135 664C180 692.7 225 733.3 270 718.8C315 704.3 360 634.7 405 608.7C450 582.7 495 600.3 540 616.2C585 632 630 646 652.5 653L675 660L675 901L652.5 901C630 901 585 901 540 901C495 901 450 901 405 901C360 901 315 901 270 901C225 901 180 901 135 901C90 901 45 901 22.5 901L0 901Z" fill="#d6c5f0"></path></svg>