<svg id="visual" viewBox="0 0 675 900" width="675" height="900" xmlns="http://www.w3.org/2000/svg" xmlns:xlink="http://www.w3.org/1999/xlink" version="1.1"><rect x="0" y="0" width="675" height="900" fill="#5727A3"></rect><path d="M0 690L22.5 687.3C45 684.7 90 679.3 135 647C180 614.7 225 555.3 270 526.7C315 498 360 500 405 530.3C450 560.7 495 619.3 540 611.5C585 603.7 630 529.3 652.5 492.2L675 455L675 0L652.5 0C630 0 585 0 540 0C495 0 450 0 405 0C360 0 315 0 270 0C225 0 180 0 135 0C90 0 45 0 22.5 0L0 0Z" fill="#9153f4"></path><path d="M0 212L22.5 233.3C45 254.7 90 297.3 135 314.2C180 331 225 322 270 320.2C315 318.3 360 323.7 405 311.7C450 299.7 495 270.3 540 264.8C585 259.3 630 277.7 652.5 286.8L675 296L675 0L652.5 0C630 0 585 0 540 0C495 0 450 0 405 0C360 0 315 0 270 0C225 0 180 0 135 0C90 0 45 0 22.5 0L0 0Z" fill="#b68ef4"></path><path d="M0 149L22.5 153.2C45 157.3 90 165.7 135 189.8C180 214 225 254 270 250.5C315 247 360 200 405 178.8C450 157.7 495 162.3 540 174.8C585 187.3 630 207.7 652.5 217.8L675 228L675 0L652.5 0C630 0 585 0 540 0C495 0 450 0 405 0C360 0 315 0 270 0C225 0 180 0 135 0C90 0 45 0 22.5 0L0 0Z" fill="#d6c5f0"></path></svg>