<svg id="visual" viewBox="0 0 960 300" width="960" height="300" xmlns="http://www.w3.org/2000/svg" xmlns:xlink="http://www.w3.org/1999/xlink" version="1.1"><rect x="0" y="0" width="960" height="300" fill="#5727A3"></rect><path d="M0 214L20 210.7C40 207.3 80 200.7 120 182.8C160 165 200 136 240 139.3C280 142.7 320 178.3 360 190C400 201.7 440 189.3 480 188.5C520 187.7 560 198.3 600 186.3C640 174.3 680 139.7 720 127.3C760 115 800 125 840 136.3C880 147.7 920 160.3 940 166.7L960 173L960 0L940 0C920 0 880 0 840 0C800 0 760 0 720 0C680 0 640 0 600 0C560 0 520 0 480 0C440 0 400 0 360 0C320 0 280 0 240 0C200 0 160 0 120 0C80 0 40 0 20 0L0 0Z" fill="#9153f4"></path><path d="M0 96L20 110.7C40 125.3 80 154.7 120 149.8C160 145 200 106 240 97.3C280 88.7 320 110.3 360 117.5C400 124.7 440 117.3 480 115C520 112.7 560 115.3 600 126C640 136.7 680 155.3 720 147.7C760 140 800 106 840 109C880 112 920 152 940 172L960 192L960 0L940 0C920 0 880 0 840 0C800 0 760 0 720 0C680 0 640 0 600 0C560 0 520 0 480 0C440 0 400 0 360 0C320 0 280 0 240 0C200 0 160 0 120 0C80 0 40 0 20 0L0 0Z" fill="#b68ef4"></path><path d="M0 32L20 44C40 56 80 80 120 95.7C160 111.3 200 118.7 240 120C280 121.3 320 116.7 360 114.8C400 113 440 114 480 100.8C520 87.7 560 60.3 600 51.2C640 42 680 51 720 60.5C760 70 800 80 840 91.3C880 102.7 920 115.3 940 121.7L960 128L960 0L940 0C920 0 880 0 840 0C800 0 760 0 720 0C680 0 640 0 600 0C560 0 520 0 480 0C440 0 400 0 360 0C320 0 280 0 240 0C200 0 160 0 120 0C80 0 40 0 20 0L0 0Z" fill="#d6c5f0"></path></svg>