<svg id="visual" viewBox="0 0 960 300" width="960" height="300" xmlns="http://www.w3.org/2000/svg" xmlns:xlink="http://www.w3.org/1999/xlink" version="1.1"><rect x="0" y="0" width="960" height="300" fill="#5727A3"></rect><path d="M0 93L20 93.7C40 94.3 80 95.7 120 114.7C160 133.7 200 170.3 240 166.3C280 162.3 320 117.7 360 119C400 120.3 440 167.7 480 168.8C520 170 560 125 600 122C640 119 680 158 720 169.8C760 181.7 800 166.3 840 140.8C880 115.3 920 79.7 940 61.8L960 44L960 301L940 301C920 301 880 301 840 301C800 301 760 301 720 301C680 301 640 301 600 301C560 301 520 301 480 301C440 301 400 301 360 301C320 301 280 301 240 301C200 301 160 301 120 301C80 301 40 301 20 301L0 301Z" fill="#9153f4"></path><path d="M0 225L20 227C40 229 80 233 120 213.3C160 193.7 200 150.3 240 150.2C280 150 320 193 360 216.3C400 239.7 440 243.3 480 236.3C520 229.3 560 211.7 600 205C640 198.3 680 202.7 720 190C760 177.3 800 147.7 840 149.8C880 152 920 186 940 203L960 220L960 301L940 301C920 301 880 301 840 301C800 301 760 301 720 301C680 301 640 301 600 301C560 301 520 301 480 301C440 301 400 301 360 301C320 301 280 301 240 301C200 301 160 301 120 301C80 301 40 301 20 301L0 301Z" fill="#b68ef4"></path><path d="M0 276L20 262.3C40 248.7 80 221.3 120 221.8C160 222.3 200 250.7 240 256.8C280 263 320 247 360 239C400 231 440 231 480 224.8C520 218.7 560 206.3 600 205C640 203.7 680 213.3 720 212.3C760 211.3 800 199.7 840 196C880 192.3 920 196.7 940 198.8L960 201L960 301L940 301C920 301 880 301 840 301C800 301 760 301 720 301C680 301 640 301 600 301C560 301 520 301 480 301C440 301 400 301 360 301C320 301 280 301 240 301C200 301 160 301 120 301C80 301 40 301 20 301L0 301Z" fill="#d6c5f0"></path></svg>